<?xml version="1.0" encoding="utf-8"?>
<!-- Generator: Adobe Illustrator 15.1.0, SVG Export Plug-In . SVG Version: 6.00 Build 0)  -->
<!DOCTYPE svg PUBLIC "-//W3C//DTD SVG 1.1//EN" "http://www.w3.org/Graphics/SVG/1.1/DTD/svg11.dtd">
<svg version="1.1" id="Layer_1" xmlns="http://www.w3.org/2000/svg" xmlns:xlink="http://www.w3.org/1999/xlink" x="0px" y="0px"
	 width="250px" height="250px" viewBox="-89.25 -89.418 250 250" enable-background="new -89.25 -89.418 250 250"
	 xml:space="preserve">
<radialGradient id="SVGID_1_" cx="35.75" cy="755.582" r="125" gradientTransform="matrix(1 0 0 1 0 -720)" gradientUnits="userSpaceOnUse">
	<stop  offset="0" style="stop-color:#FFFFFF"/>
	<stop  offset="0.4923" style="stop-color:#FDFDFD"/>
	<stop  offset="0.6697" style="stop-color:#F6F6F7"/>
	<stop  offset="0.7961" style="stop-color:#EBEBEC"/>
	<stop  offset="0.8976" style="stop-color:#DADADC"/>
	<stop  offset="0.9636" style="stop-color:#CACBCD"/>
</radialGradient>
<circle fill="url(#SVGID_1_)" cx="35.75" cy="35.582" r="125"/>
<circle fill="#231F20" cx="35.75" cy="34.602" r="116.142"/>
<circle fill="#231F20" cx="35.75" cy="34.602" r="116.142"/>
<linearGradient id="SVGID_2_" gradientUnits="userSpaceOnUse" x1="64.9868" y1="847.8066" x2="64.9868" y2="655.5195" gradientTransform="matrix(1 0 0 1 0 -720)">
	<stop  offset="0" style="stop-color:#000000;stop-opacity:0"/>
	<stop  offset="0.3726" style="stop-color:#020202;stop-opacity:0.2795"/>
	<stop  offset="0.5069" style="stop-color:#090909;stop-opacity:0.3802"/>
	<stop  offset="0.6026" style="stop-color:#141414;stop-opacity:0.4519"/>
	<stop  offset="0.68" style="stop-color:#252525;stop-opacity:0.51"/>
	<stop  offset="0.7463" style="stop-color:#3B3B3B;stop-opacity:0.5597"/>
	<stop  offset="0.805" style="stop-color:#575757;stop-opacity:0.6037"/>
	<stop  offset="0.8581" style="stop-color:#777777;stop-opacity:0.6436"/>
	<stop  offset="0.9069" style="stop-color:#9D9D9D;stop-opacity:0.6802"/>
	<stop  offset="0.9523" style="stop-color:#C8C8C8;stop-opacity:0.7142"/>
	<stop  offset="0.9926" style="stop-color:#F6F6F6;stop-opacity:0.7445"/>
	<stop  offset="1" style="stop-color:#FFFFFF;stop-opacity:0.75"/>
</linearGradient>
<path fill="url(#SVGID_2_)" d="M77.827,127.807c10.534-10.178,17.094-24.445,17.094-40.217c0-30.843-25.091-55.941-55.941-55.945
	c-26.498,0-48.057-21.56-48.057-48.059c0-26.504,21.559-48.067,48.057-48.067c55.184,0,100.071,44.889,100.071,100.067
	C139.051,76.997,113.76,112.607,77.827,127.807z"/>
<radialGradient id="SVGID_4_" cx="30.8291" cy="-18.875" r="8.8579" gradientUnits="userSpaceOnUse">
	<stop  offset="0" style="stop-color:#E98C15"/>
	<stop  offset="0.3018" style="stop-color:#EA8F16"/>
	<stop  offset="0.5421" style="stop-color:#EE991B"/>
	<stop  offset="0.7612" style="stop-color:#F4AA22"/>
	<stop  offset="0.9667" style="stop-color:#FDC12C"/>
	<stop  offset="1" style="stop-color:#FFC62E"/>
</radialGradient>
<circle fill="url(#SVGID_4_)" cx="30.829" cy="-18.875" r="8.858"/>
<g>
	<g>
		
			<linearGradient id="SVGID_5_" gradientUnits="userSpaceOnUse" x1="9.207" y1="651.582" x2="9.207" y2="859.5898" gradientTransform="matrix(1 0 0 1 0 -720)">
			<stop  offset="0" style="stop-color:#E98C15"/>
			<stop  offset="0.3841" style="stop-color:#EA8E16"/>
			<stop  offset="0.5978" style="stop-color:#ED961A"/>
			<stop  offset="0.7697" style="stop-color:#F2A41F"/>
			<stop  offset="0.9184" style="stop-color:#FAB828"/>
			<stop  offset="1" style="stop-color:#FFC62E"/>
		</linearGradient>
		<path id="SVGID_3_" fill="url(#SVGID_5_)" d="M35.214,139.59c-57.44,0-104.008-46.567-104.008-104.004
			c0-57.44,46.567-104.004,104.008-104.004c-28.728,0-52.004,23.28-52.004,52c0,28.72,23.276,52.004,52.004,52.008
			c28.722,0,51.994,23.276,51.994,51.996C87.208,116.306,63.936,139.59,35.214,139.59z"/>
	</g>
	<g>
		<g>
			<defs>
				<path id="SVGID_6_" d="M35.214,139.59c-57.44,0-104.008-46.567-104.008-104.004c0-57.44,46.567-104.004,104.008-104.004
					c-28.728,0-52.004,23.28-52.004,52c0,28.72,23.276,52.004,52.004,52.008c28.722,0,51.994,23.276,51.994,51.996
					C87.208,116.306,63.936,139.59,35.214,139.59z"/>
			</defs>
			<clipPath id="SVGID_7_">
				<use xlink:href="#SVGID_6_"  overflow="visible"/>
			</clipPath>
			
				<radialGradient id="SVGID_8_" cx="-32.3291" cy="660.4434" r="159.2666" gradientTransform="matrix(1 0 0 1 0 -720)" gradientUnits="userSpaceOnUse">
				<stop  offset="0" style="stop-color:#FFFFFF"/>
				<stop  offset="0.2203" style="stop-color:#FFFFFC"/>
				<stop  offset="0.3869" style="stop-color:#FFFFF2"/>
				<stop  offset="0.536" style="stop-color:#FFFEE2"/>
				<stop  offset="0.6747" style="stop-color:#FFFDCB"/>
				<stop  offset="0.8063" style="stop-color:#FFFCAE"/>
				<stop  offset="0.9308" style="stop-color:#FFFB8A"/>
				<stop  offset="0.9636" style="stop-color:#FFFB7F"/>
			</radialGradient>
			
				<ellipse opacity="0.75" clip-path="url(#SVGID_7_)" fill="url(#SVGID_8_)" enable-background="new    " cx="-32.329" cy="-59.556" rx="184.22" ry="129.594"/>
		</g>
	</g>
</g>
<circle cx="30.829" cy="86.771" r="8.858"/>
<path fill="none" stroke="#E98C15" stroke-width="2" stroke-miterlimit="10" d="M35.214,139.59
	c-57.44,0-104.008-46.567-104.008-104.004c0-57.44,46.567-104.004,104.008-104.004c-28.728,0-52.004,23.28-52.004,52
	c0,28.72,23.276,52.004,52.004,52.008c28.722,0,51.994,23.276,51.994,51.996C87.208,116.306,63.936,139.59,35.214,139.59z"/>
</svg>
